<?xml version="1.0" encoding="UTF-8"?>
<svg id="Capa_2" data-name="Capa 2" xmlns="http://www.w3.org/2000/svg" viewBox="0 0 83.2 70.87">
  <defs>
    <style>
      .cls-1 {
        fill: #c12f41;
      }

      .cls-2 {
        fill: #f5f5f5;
      }
    </style>
  </defs>
  <g id="Capa_1-2" data-name="Capa 1">
    <g>
      <g>
        <path class="cls-2" d="m63,70.87h-17.84c-2.04,0-3.97-.79-5.44-2.21l-.17-.17s-.1-.1-.11-.11l-1.29-1.29s-.09-.09-.11-.11l-.12-.12s-.09-.09-.11-.11l-.13-.13s-.09-.09-.11-.11l-.11-.11s-.05-.05-.06-.06l-.45-.45c-1.14,2.97-4.02,4.99-7.27,4.99H12.91c-2.1,0-4.13-.86-5.59-2.36,0,0-.01-.01-.02-.02l-.06-.06s-.05-.05-.07-.07c-.05-.04-.09-.09-.14-.14-.03-.03-.06-.06-.08-.08-.05-.05-.1-.09-.14-.14-.03-.03-.05-.05-.08-.08-.06-.05-.11-.11-.16-.16-.02-.02-.04-.05-.07-.07-.06-.05-.11-.11-.17-.17l-.07-.07c-.05-.05-.11-.11-.16-.16-.02-.02-.04-.04-.07-.07-.05-.05-.1-.09-.14-.14-.01-.01-.03-.03-.04-.04-.03-.03-.05-.05-.08-.08-.05-.04-.09-.09-.14-.14-.02-.02-.05-.05-.07-.07-.06-.06-.12-.11-.17-.17-.02-.02-.04-.04-.06-.06-.05-.05-.11-.1-.16-.16-.03-.03-.05-.05-.08-.08-.05-.05-.1-.1-.15-.15-.03-.03-.05-.05-.08-.08-.05-.05-.1-.1-.15-.15-.03-.03-.05-.05-.08-.08-.05-.05-.11-.11-.16-.16-.02-.02-.05-.05-.07-.07-.06-.05-.11-.11-.17-.17-.02-.02-.05-.05-.07-.07-.05-.05-.11-.11-.16-.16-.02-.02-.04-.04-.07-.07-.05-.05-.1-.09-.14-.14-.02-.02-.03-.03-.05-.05-.02-.02-.04-.04-.07-.07-.05-.05-.1-.09-.14-.14-.02-.02-.05-.05-.07-.07-.06-.06-.12-.11-.17-.17-.02-.02-.04-.04-.06-.06-.05-.05-.11-.1-.16-.16-.03-.03-.05-.05-.08-.08-.05-.05-.1-.1-.15-.15-.03-.03-.05-.05-.08-.08-.05-.05-.1-.1-.15-.15-.03-.03-.05-.05-.08-.08-.05-.05-.11-.11-.16-.16-.03-.03-.05-.05-.08-.08-.02-.02-.03-.03-.05-.05-.24-.24-.45-.49-.65-.75-1.45-1.88-1.96-4.41-1.33-6.73L13.74,5.77c.92-3.4,4.02-5.77,7.53-5.77h16.77c2.1,0,4.14.87,5.61,2.38.04.04.08.08.11.11.04.04.08.07.11.11,0,0,0,0,0,0,0,0,0,0,0,0,.03.03.06.06.08.08l.19-.21c1.47-1.58,3.55-2.49,5.71-2.49h20.43c1.98,0,3.87.75,5.32,2.11.04.04.08.08.12.11,0,0,0,0,0,0,.02.02.03.03.05.05.03.03.06.06.09.09,0,0,.01.01.02.02.01,0,.02.02.03.03.01.01.03.03.04.04,0,0,0,0,0,0,0,0,0,0,0,0,.02.02.03.03.05.05.03.03.07.06.1.1.01.01.03.02.04.04,0,0,0,0,0,0,.03.03.06.06.08.08,0,0,.02.02.03.03,0,0,.02.02.02.02.01.01.03.03.04.04l.05.05s.07.06.1.1c.01.01.03.02.04.04.01.01.03.03.04.04,0,0,0,0,0,0,.02.02.05.05.07.07,0,0,.02.02.02.02.01.01.03.03.04.05.02.02.04.03.05.05.03.03.07.06.1.1.01.01.03.02.04.04.01.01.03.03.04.04,0,0,0,0,0,0,.02.02.04.03.05.05.03.03.07.06.1.1.03.03.06.06.08.08.02.02.05.05.07.07l.02.02s.03.03.04.04c0,0,0,0,0,0,.02.02.03.03.05.05.03.03.07.07.1.1.03.03.06.06.08.08.02.02.05.05.07.07l.02.02s0,0,0,0c.03.03.06.06.08.08.02.02.03.03.05.05,0,0,.01.01.02.02,0,.01.02.02.03.03,0,0,0,0,0,0,.01.01.03.03.04.04,0,0,0,0,0,0,.03.03.06.06.08.08,0,0,.02.02.03.03,0,0,.02.02.02.02.01.01.03.03.04.04,0,0,0,0,0,0,0,0,0,0,0,0,.02.02.03.03.05.05.03.03.07.06.1.1.01.01.03.02.04.04,0,0,0,0,0,0,.03.03.06.06.08.08,0,0,.02.02.03.03,0,0,.02.02.02.02.01.01.03.03.04.04l.05.05s.07.06.1.1c.01.01.03.02.04.04.01.01.03.03.04.04h0s.05.05.07.07c0,0,.02.02.02.02.01.01.03.03.04.04l.05.05s.07.06.1.1c.01.01.03.02.04.04.01.01.03.03.04.04h0s.04.04.05.05c.03.03.07.06.1.1.03.03.06.06.08.08.02.02.05.05.07.07l.02.02s.03.03.04.04c.02.02.04.04.05.05.03.03.06.06.1.1.01.01.03.02.04.04.01.01.03.03.04.04,0,0,0,0,0,0,.02.02.05.05.07.07l.02.02s0,0,0,0c.03.03.06.06.08.08.02.02.03.03.05.05,0,0,.01.01.02.02.01,0,.02.02.03.03,0,0,0,0,0,0,.01.01.03.03.04.04,0,0,0,0,0,0,.03.03.06.06.08.08.02.02.04.04.06.06.01.01.03.02.04.04,0,0,0,0,0,0,.02.02.03.03.05.05.03.03.07.06.1.1.01.01.03.02.04.04,0,0,0,0,0,0,.03.03.06.06.08.08,0,0,.02.02.03.03l.02.02s.03.03.04.05c.02.02.04.03.05.05.03.03.07.06.1.1.01.01.03.02.04.04,0,0,.02.02.02.02.82.77,1.45,1.69,1.88,2.72,1.21,2.9.54,6.24-1.7,8.47l-19.29,19.35,8.65,22.52c.92,2.4.6,5.09-.85,7.2-1.46,2.12-3.86,3.38-6.42,3.38Zm-35.46-8.36s0,0,0,0h0Zm18.54-1.65h13.71l-8.66-22.54c-.71-1.84-.27-3.93,1.13-5.32l20.02-20.09s-.02-.02-.04-.04c-.04-.04-.08-.07-.11-.11-.03-.03-.06-.06-.09-.09-.03-.03-.06-.06-.09-.09-.03-.03-.06-.06-.08-.08-.03-.03-.07-.07-.1-.1-.03-.03-.06-.06-.09-.09-.03-.03-.06-.06-.09-.09-.03-.03-.06-.06-.09-.09-.03-.03-.05-.05-.08-.08-.03-.03-.07-.07-.1-.1-.04-.03-.07-.07-.11-.11-.03-.03-.05-.05-.08-.08-.03-.03-.06-.06-.08-.08-.04-.03-.07-.07-.1-.1-.03-.03-.06-.06-.09-.09-.03-.03-.05-.05-.08-.08-.04-.04-.08-.08-.12-.12-.03-.03-.05-.05-.08-.08-.03-.03-.07-.07-.1-.1-.03-.03-.06-.06-.08-.08-.03-.03-.07-.07-.1-.1-.03-.03-.06-.06-.09-.09-.03-.03-.06-.06-.09-.09-.03-.03-.06-.06-.09-.09-.03-.03-.05-.05-.08-.08-.03-.03-.07-.07-.1-.1-.03-.03-.07-.06-.1-.1-.03-.03-.06-.06-.09-.09-.03-.03-.05-.05-.08-.08-.04-.04-.07-.07-.11-.11l-.07-.07h-18.54l-3.07,3.3c-.93,1.01-2.24,1.58-3.62,1.6-.02,0-.03,0-.05,0-1.29,0-2.53-.5-3.45-1.39-.03-.03-.06-.06-.09-.09,0,0,0,0-.01-.01-.04-.04-.08-.07-.11-.11h0s-.08-.08-.12-.12l-.03-.03s-.07-.07-.1-.1c-.03-.03-.06-.06-.09-.1-.01-.01-.02-.02-.04-.04-.03-.03-.06-.06-.09-.09-.03-.03-.07-.07-.09-.09-.01-.01-.02-.02-.03-.03-.05-.05-.11-.1-.16-.16,0,0-.02-.02-.03-.03-.03-.03-.05-.05-.08-.08-.02-.02-.05-.04-.07-.07-.03-.03-.06-.06-.09-.1,0,0,0,0,0,0,0,0,0,0,0,0,0,0-.01-.01-.02-.02,0,0,0,0,0,0,0,0,.01.01.02.02,0,0-.01-.01-.02-.02-.06-.06-.12-.12-.18-.18-.02-.02-.04-.04-.05-.06-.06-.06-.12-.11-.17-.17l-.03-.03s-.04-.04-.05-.05c-.04-.04-.08-.07-.11-.11-.04-.04-.08-.08-.12-.12-.03-.03-.06-.06-.09-.09h0s-.08-.08-.12-.12c-.01-.01-.02-.02-.03-.03-.03-.03-.05-.05-.08-.08-.04-.04-.08-.08-.12-.12-.01-.01-.02-.02-.03-.03-.03-.03-.07-.06-.1-.1-.03-.03-.06-.06-.09-.1-.01-.01-.02-.02-.03-.03-.03-.03-.07-.06-.1-.1-.03-.03-.07-.07-.09-.09-.01-.01-.02-.02-.03-.03-.05-.05-.11-.1-.16-.16,0,0-.02-.02-.03-.03-.03-.02-.05-.05-.07-.07-.02-.02-.05-.04-.07-.07-.03-.03-.06-.06-.09-.1,0,0,.01.01.02.02,0,0-.01-.01-.02-.02,0,0-.02-.02-.02-.02,0,0,0,0,0,0,0,0,0,0,0,0,0,0,.02.02.03.03,0,0-.02-.02-.03-.03-.04-.03-.07-.07-.11-.1-.01-.01-.03-.03-.05-.05h-14.16l-12.7,47.3.03.03s0,0,0,0c.02.01.03.03.04.04h0s.05.06.08.08c0,0,.01.01.02.02.03.03.06.06.08.08,0,0,0,0,0,0l.04.04h0s.06.06.08.08c0,0,.01.01.02.02.01.01.03.03.04.04.03.03.07.06.1.1.02.02.04.04.06.06,0,0,.02.02.03.03.02.02.03.03.05.05.03.03.07.06.1.1.02.02.04.04.06.06,0,0,.02.02.03.03.02.02.05.05.07.07.02.02.04.04.06.06h.01s.01.03.02.03c.03.02.05.05.08.08.01.01.03.03.04.04.03.03.06.06.08.08,0,0,0,0,0,0,0,0,.01.01.03.03,0,0,.01.01.02.02.01.01.03.02.04.04.03.03.07.06.1.1,0,0,0,0,0,0,.01.01.03.03.04.04,0,0,0,0,0,0,0,0,.02.02.05.05,0,.01.02.02.03.03.04.03.07.07.11.11,0,0,0,0,0,0,.02.02.04.04.06.06,0,0,.01.01.02.02.02.02.03.03.05.05.04.04.08.08.12.12.01.01.02.02.03.03.02.02.04.04.07.07.01.01.03.02.04.04.03.03.06.06.08.08,0,0,0,0,0,0,.01.01.03.02.04.04.03.03.06.06.08.08,0,0,.01.01.02.02.03.03.06.06.08.08,0,0,0,0,0,0,.02.01.03.03.04.04h0s.06.06.08.08c0,0,.01.01.02.02.03.03.05.05.08.08,0,0,0,0,0,0,.01.01.02.02.03.03,0,0,.01.01.02.02.02.02.04.04.07.07,0,0,.02.02.03.03.02.02.03.03.05.05.03.03.07.06.1.1.02.02.04.04.06.06,0,0,.02.02.03.03.02.02.05.05.07.07.02.02.04.04.06.06,0,0,0,0,.01.01.02.02.04.04.06.06.01.01.03.02.04.04.01.01.03.03.04.04.03.03.06.06.08.08,0,0,0,0,0,0,0,0,.01.01.03.03,0,0,.01.01.02.02.02.02.04.04.06.06.02.02.03.03.05.05.03.02.05.05.07.07,0,0,0,0,0,0,0,0,0,0,0,0h14.16l1.81-6.74c.23-.85.68-1.63,1.3-2.25l1.09-1.09c1.21-1.2,2.93-1.71,4.6-1.34,1.66.36,3.02,1.54,3.62,3.14l1.55,4.15s.02.02.02.02l.13.13s.01.01.02.02c.01.01.02.02.03.03l.17.17.07.07.17.17s.03.03.05.05c.02.02.04.04.05.05l.14.14s.08.08.1.1l.59.59s.1.1.1.1l.59.59s.03.03.05.05l.17.17.07.07.17.17s.03.03.05.05c.02.02.04.04.05.05l.14.14s.03.03.06.06l.17.17s.09.09.11.11l.36.36s.1.1.1.1l.37.37s0,0,.02.02Zm-3.97-3.7v.02s0-.02,0-.02Zm-32.76-.78s0,0,0,0c0,0,0,0,0,0Zm-.4-.31s0,0,0,0c0,0,0,0,0,0Zm0,0s0,0,0,0c0,0,0,0,0,0Zm-.05-.06s0,0,0,0c0,0,0,0,0,0Zm0,0s0,0,0,0c0,0,0,0,0,0Zm0,0s0,0,0,0c0,0,0,0,0,0ZM73.87,14.49s.03.03.04.04h0s-.03-.03-.04-.04Zm-33.89-1.64h0s0,0,0,0Zm-.55-.55s0,0,0,0c0,0,0,0,0,0Zm0,0s0,0,0,0c0,0,0,0,0,0Zm-.02-.02s.01.01.02.02c0,0-.01-.01-.02-.02Zm-1.52-1.52h0s0,0,0,0Zm-.55-.55s0,0,0,0c0,0,0,0,0,0Zm0,0s0,0,0,0c0,0,0,0,0,0Zm14.16-.92h0s0,0,0,0Zm-8.35-7.35h0,0Zm0,0s0,0,0,0c0,0,0,0,0,0Zm0,0s0,0,0,0c0,0,0,0,0,0Zm32.15-.1s0,0,0,0c0,0,0,0,0,0Zm0,0s0,0,0,0c0,0,0,0,0,0Zm-35.86,10.46s0,0,0,0c0,0,0,0,0,0Zm-2.09-2.09h0s0,0,0,0Z"/>
        <path class="cls-2" d="m57.89,62.96h-17.85c-2.09,0-3.95-1.3-4.68-3.25l-3.3-8.84-.58.58-2.09,7.81c-.59,2.19-2.57,3.71-4.83,3.71H7.79c-1.55,0-3.02-.72-3.97-1.96s-1.26-2.84-.86-4.34L16.44,6.49c.59-2.18,2.57-3.7,4.83-3.7h16.77c1.56,0,3.03.73,3.97,1.96.68.88,1.03,1.95,1.03,3.04l3.16-3.4c.95-1.02,2.27-1.6,3.66-1.6h20.43c2.02,0,3.84,1.22,4.62,3.08.77,1.87.35,4.02-1.08,5.45l-20.57,20.64,9.3,24.21c.59,1.54.39,3.27-.55,4.62s-2.47,2.17-4.12,2.17Zm-14.38-10h7.1l-7.85-20.44c-.71-1.84-.27-3.93,1.13-5.32l14.36-14.41h-6.2l-15.22,16.39c-1.56,1.69-4.08,2.09-6.09.97-2.01-1.12-3-3.46-2.4-5.68l3.17-11.68h-6.4l-10.79,40.17h6.42l1.44-5.4c.23-.85.67-1.62,1.29-2.24l7.02-7.02c1.2-1.2,2.93-1.71,4.6-1.35,1.66.36,3.03,1.54,3.62,3.14l4.81,12.88Z"/>
      </g>
      <g>
        <path class="cls-1" d="m77.38,14.87l-21.58,21.66,9.81,25.55c.33.86.22,1.82-.3,2.58s-1.38,1.21-2.3,1.21h-17.84c-.74,0-1.44-.3-1.95-.8l-.13-.13s-.03-.03-.05-.05c-.01-.01-.03-.03-.05-.05l-.13-.13s-.03-.03-.05-.05c-.01-.01-.03-.03-.05-.05l-.13-.13s-.03-.03-.05-.05c-.01-.01-.03-.03-.05-.05l-.13-.13s-.03-.03-.05-.05c-.01-.01-.03-.03-.05-.05l-.13-.13s-.03-.03-.05-.05c-.01-.01-.03-.03-.05-.05l-.13-.13s-.03-.03-.05-.05c-.01-.01-.03-.03-.05-.05l-.13-.13s-.03-.03-.05-.05c-.01-.01-.03-.03-.05-.05l-.13-.13s-.03-.03-.05-.05c-.01-.01-.03-.03-.05-.05l-.13-.13s-.03-.03-.05-.05c-.01-.01-.03-.03-.05-.05l-.13-.13s-.03-.03-.05-.05c-.01-.01-.03-.03-.05-.05l-.13-.13s-.03-.03-.05-.05c-.01-.01-.03-.03-.05-.05l-.13-.13s-.03-.03-.05-.05c-.01-.01-.03-.03-.05-.05l-.13-.13s-.03-.03-.05-.05c-.01-.01-.03-.03-.05-.05l-.13-.13s-.03-.03-.05-.05c-.01-.01-.03-.03-.05-.05l-.13-.13s-.03-.03-.05-.05c-.01-.01-.03-.03-.05-.05l-.13-.13s-.03-.03-.05-.05c-.01-.01-.03-.03-.05-.05l-.13-.13s-.03-.03-.05-.05c-.01-.01-.03-.03-.05-.05l-.13-.13s-.03-.03-.05-.05c-.01-.01-.03-.03-.05-.05l-.13-.13s-.03-.03-.05-.05c-.01-.01-.03-.03-.05-.05l-.13-.13s-.03-.03-.05-.05c-.01-.01-.03-.03-.05-.05l-.13-.13s-.03-.03-.05-.05c-.01-.01-.03-.03-.05-.05l-.13-.13s-.03-.03-.05-.05c-.31-.29-.56-.65-.71-1.06l-1.72-4.61-1.09,1.09-2.25,8.38c-.33,1.22-1.43,2.07-2.7,2.07H12.9c-.77,0-1.5-.32-2.02-.86-.02-.01-.03-.03-.05-.05l-.05-.05s-.03-.03-.05-.05c-.01-.01-.03-.03-.05-.05-.01-.01-.03-.03-.05-.05-.02-.01-.03-.03-.05-.05l-.05-.05s-.03-.03-.05-.05c-.01-.01-.03-.03-.05-.05-.01-.01-.03-.03-.05-.05-.02-.01-.03-.03-.05-.05l-.05-.05s-.03-.03-.05-.05c-.01-.01-.03-.03-.05-.05-.01-.01-.03-.03-.05-.05-.02-.01-.03-.03-.05-.05l-.05-.05s-.03-.03-.05-.05c-.01-.01-.03-.03-.05-.05-.01-.01-.03-.03-.05-.05-.02-.01-.03-.03-.05-.05l-.05-.05s-.03-.03-.05-.05c-.01-.01-.03-.03-.05-.05-.01-.01-.03-.03-.05-.05-.02-.01-.03-.03-.05-.05l-.05-.05s-.03-.03-.05-.05c-.01-.01-.03-.03-.05-.05-.01-.01-.03-.03-.05-.05-.02-.01-.03-.03-.05-.05l-.05-.05s-.03-.03-.05-.05c-.01-.01-.03-.03-.05-.05-.01-.01-.03-.03-.05-.05-.02-.01-.03-.03-.05-.05l-.05-.05s-.03-.03-.05-.05c-.01-.01-.03-.03-.05-.05-.01-.01-.03-.03-.05-.05-.02-.01-.03-.03-.05-.05l-.05-.05s-.03-.03-.05-.05c-.01-.01-.03-.03-.05-.05-.01-.01-.03-.03-.05-.05-.02-.01-.03-.03-.05-.05l-.05-.05s-.03-.03-.05-.05c-.01-.01-.03-.03-.05-.05-.01-.01-.03-.03-.05-.05-.02-.01-.03-.03-.05-.05l-.05-.05s-.03-.03-.05-.05c-.01-.01-.03-.03-.05-.05-.01-.01-.03-.03-.05-.05-.02-.01-.03-.03-.05-.05l-.05-.05s-.03-.03-.05-.05c-.01-.01-.03-.03-.05-.05-.01-.01-.03-.03-.05-.05-.02-.01-.03-.03-.05-.05l-.05-.05s-.03-.03-.05-.05c-.01-.01-.03-.03-.05-.05-.01-.01-.03-.03-.05-.05-.02-.01-.03-.03-.05-.05l-.05-.05s-.03-.03-.05-.05c-.01-.01-.03-.03-.05-.05-.01-.01-.03-.03-.05-.05-.02-.01-.03-.03-.05-.05l-.05-.05s-.03-.03-.05-.05c-.01-.01-.03-.03-.05-.05-.01-.01-.03-.03-.05-.05-.02-.01-.03-.03-.05-.05l-.05-.05s-.03-.03-.05-.05c-.01-.01-.03-.03-.05-.05-.01-.01-.03-.03-.05-.05-.02-.01-.03-.03-.05-.05l-.05-.05s-.03-.03-.05-.05c-.01-.01-.03-.03-.05-.05-.01-.01-.03-.03-.05-.05-.02-.01-.03-.03-.05-.05l-.05-.05s-.03-.03-.05-.05c-.01-.01-.03-.03-.05-.05-.01-.01-.03-.03-.05-.05-.02-.01-.03-.03-.05-.05l-.05-.05s-.03-.03-.05-.05c-.01-.01-.03-.03-.05-.05-.01-.01-.03-.03-.05-.05-.02-.01-.03-.03-.05-.05l-.05-.05s-.03-.03-.05-.05c-.01-.01-.03-.03-.05-.05-.01-.01-.03-.03-.05-.05-.02-.01-.03-.03-.05-.05l-.05-.05s-.03-.03-.05-.05c-.01-.01-.03-.03-.05-.05-.01-.01-.03-.03-.05-.05-.02-.01-.03-.03-.05-.05l-.05-.05s-.03-.03-.05-.05c-.01-.01-.03-.03-.05-.05-.08-.08-.17-.18-.24-.27-.53-.69-.71-1.58-.48-2.42L18.57,7.06c.33-1.22,1.43-2.06,2.7-2.06h16.77c.77,0,1.5.32,2.02.87.01.02.03.03.05.05.01.02.03.03.05.05.01.02.03.03.05.05.01.01.03.03.04.04.02.01.03.03.05.05.01.02.03.03.05.05.01.02.03.03.05.05.01.02.03.03.05.05.01.01.03.03.04.04.02.01.03.03.05.05.01.02.03.03.05.05.01.02.03.03.05.05.01.02.03.03.05.05.01.01.03.03.04.04.02.01.03.03.05.05.01.02.03.03.05.05.01.02.03.03.05.05.01.02.03.03.05.05.01.01.03.03.04.04.02.01.03.03.05.05.01.02.03.03.05.05.01.02.03.03.05.05.01.02.03.03.05.05.01.01.03.03.04.04.02.01.03.03.05.05.01.02.03.03.05.05.01.02.03.03.05.05.01.02.03.03.05.05.01.01.03.03.04.04.02.01.03.03.05.05.01.02.03.03.05.05.01.02.03.03.05.05.01.02.03.03.05.05.01.01.03.03.04.04.02.01.03.03.05.05.01.02.03.03.05.05.01.02.03.03.05.05.01.02.03.03.05.05.01.01.03.03.04.04.02.01.03.03.05.05.01.02.03.03.05.05.01.02.03.03.05.05.01.02.03.03.05.05.01.01.03.03.04.04.02.01.03.03.05.05.01.02.03.03.05.05.01.02.03.03.05.05.01.02.03.03.05.05.01.01.03.03.04.04.02.01.03.03.05.05.01.02.03.03.05.05.01.02.03.03.05.05.01.02.03.03.05.05.01.01.03.03.04.04.02.01.03.03.05.05.01.02.03.03.05.05.01.02.03.03.05.05.01.02.03.03.05.05.01.01.03.03.04.04.02.01.03.03.05.05.01.02.03.03.05.05.01.02.03.03.05.05.01.02.03.03.05.05.01.01.03.03.04.04.02.01.03.03.05.05.01.02.03.03.05.05.01.02.03.03.05.05.01.02.03.03.05.05.01.01.03.03.04.04.02.01.03.03.05.05.01.02.03.03.05.05.01.02.03.03.05.05.01.02.03.03.05.05.01.01.03.03.04.04.02.01.03.03.05.05.01.02.03.03.05.05.01.02.03.03.05.05.01.02.03.03.05.05.01.01.03.03.04.04.02.01.03.03.05.05.01.02.03.03.05.05.01.02.03.03.05.05.01.02.03.03.05.05.01.01.03.03.04.04.02.01.03.03.05.05.01.02.03.03.05.05,0,.01.02.02.04.04l3.72-4.01c.53-.57,1.27-.89,2.05-.89h20.43c.72,0,1.4.28,1.91.76.01.01.03.03.05.05.01.01.03.03.05.05.01.01.03.03.05.05.01.01.03.03.05.05.01.01.03.03.05.05.01.01.03.03.05.05.01.01.03.03.05.05.01.01.03.03.05.05.01.01.03.03.05.05.01.01.03.03.05.05.01.01.03.03.05.05.01.01.03.03.05.05.01.01.03.03.05.05.01.01.03.03.05.05.01.01.03.03.05.05.01.01.03.03.05.05.01.01.03.03.05.05.01.01.03.03.05.05.01.01.03.03.05.05.01.01.03.03.05.05.01.01.03.03.05.05.01.01.03.03.05.05.01.01.03.03.05.05.01.01.03.03.05.05.01.01.03.03.05.05.01.01.03.03.05.05.01.01.03.03.05.05.01.01.03.03.05.05.01.01.03.03.05.05.01.01.03.03.05.05.01.01.03.03.05.05.01.01.03.03.05.05.01.01.03.03.05.05.01.01.03.03.05.05.01.01.03.03.05.05.01.01.03.03.05.05.01.01.03.03.05.05.01.01.03.03.05.05.01.01.03.03.05.05.01.01.03.03.05.05.01.01.03.03.05.05.01.01.03.03.05.05.01.01.03.03.05.05.01.01.03.03.05.05.01.01.03.03.05.05.01.01.03.03.05.05.01.01.03.03.05.05.01.01.03.03.05.05.01.01.03.03.05.05.01.01.03.03.05.05.01.01.03.03.05.05.01.01.03.03.05.05.01.01.03.03.05.05.01.01.03.03.05.05.01.01.03.03.05.05.01.01.03.03.05.05.01.01.03.03.05.05.01.01.03.03.05.05.01.01.03.03.05.05.01.01.03.03.05.05.01.01.03.03.05.05.01.01.03.03.05.05.01.01.03.03.05.05.01.01.03.03.05.05.01.01.03.03.05.05.01.01.03.03.05.05.01.01.03.03.05.05.01.01.03.03.05.05.01.01.03.03.05.05.01.01.03.03.05.05.01.01.03.03.05.05.01.01.03.03.05.05.01.01.03.03.05.05.01.01.03.03.05.05.01.01.03.03.05.05.01.01.03.03.05.05.01.01.03.03.05.05.01.01.03.03.05.05.01.01.03.03.05.05.01.01.03.03.05.05.01.01.03.03.05.05.01.01.03.03.05.05.01.01.03.03.05.05.01.01.03.03.05.05.01.01.03.03.05.05.01.01.03.03.05.05.01.01.03.03.05.05.01.01.03.03.05.05.01.01.03.03.05.05.01.01.03.03.05.05.01.01.03.03.05.05.01.01.03.03.05.05.01.01.03.03.05.05.01.01.03.03.05.05.01.01.03.03.05.05.01.01.03.03.05.05.01.01.03.03.05.05.01.01.03.03.05.05.01.01.03.03.05.05.01.01.03.03.05.05.01.01.03.03.05.05.01.01.03.03.05.05.01.01.03.03.05.05.01.01.03.03.05.05.01.01.03.03.05.05.01.01.03.03.05.05.01.01.03.03.05.05.01.01.03.03.05.05.01.01.03.03.05.05.3.27.55.61.72,1.01.43,1.04.2,2.24-.6,3.04Z"/>
        <path class="cls-2" d="m21.27,7.79h16.77l-4.88,17.99L49.86,7.79h20.43l-22.86,22.94,10.46,27.24h-17.85l-6.02-16.13-7.02,7.02-2.44,9.1H7.79L21.27,7.79Z"/>
      </g>
    </g>
  </g>
</svg>