<svg width="89" height="100" viewBox="0 0 89 100" fill="none" xmlns="http://www.w3.org/2000/svg">
<path d="M44.0335 100L8.02445 90.0037L0 0H88.1749L80.142 89.9895L44.0335 100Z" fill="#DADADA"/>
<path d="M73.2648 84.2591L80.1295 7.35889H44.0874V92.3482L73.2648 84.2591Z" fill="#F4F4F4"/>
<path d="M18.396 40.7402L19.3854 51.7787H44.0876V40.7402H18.396Z" fill="black"/>
<path d="M16.4077 18.3979L17.4112 29.4367H44.0872V18.3979H44.0491H16.4077Z" fill="black"/>
<path d="M44.0874 69.4083L44.039 69.4212L31.7453 66.1016L30.9594 57.2979H24.9856H19.8784L21.4249 74.63L44.0366 80.9072L44.0874 80.8931V69.4083Z" fill="black"/>
<path d="M69.7083 40.7403L71.7011 18.3979H44.0493V29.4367H59.6038L58.5994 40.7403H44.0493V51.7788H57.6421L56.3608 66.095L44.0493 69.4179V80.9022L66.679 74.6304L66.845 72.7654L69.439 43.7045L69.7083 40.7403Z" fill="black"/>
</svg>
