<svg width="100" height="100" viewBox="0 0 100 100" fill="none" xmlns="http://www.w3.org/2000/svg">
<path d="M50 100C77.6142 100 100 77.6142 100 50C100 22.3858 77.6142 0 50 0C22.3858 0 0 22.3858 0 50C0 77.6142 22.3858 100 50 100Z" fill="black"/>
<path d="M85.0779 70.2965C82.5273 70.9465 80.9457 70.3255 79.5297 68.1973L69.456 54.2605L67.9985 52.3311L56.2355 68.2428C54.8899 70.1557 53.4821 70.9879 50.973 70.313L66.036 50.0953L52.0123 31.8318C54.422 31.3639 56.0906 31.5999 57.5687 33.7612L68.0151 47.8718L78.5401 33.8399C79.8899 31.927 81.339 31.1983 83.7571 31.9021L78.3206 39.1107L70.9548 48.7041C70.077 49.8013 70.1971 50.5507 71.0045 51.6107L85.0696 70.3006L85.0779 70.2965ZM14.9387 49.7557L16.1726 43.6941C19.5264 31.6993 33.2726 26.7183 42.7542 34.1297C48.2942 38.4896 49.6729 44.6547 49.3955 51.561H18.1641C17.6963 63.9906 26.6438 71.4931 38.0507 67.6673C42.0504 66.3217 44.4104 63.1915 45.5904 59.2705C46.1908 57.3079 47.1804 56.9974 49.027 57.5605C48.083 62.4628 45.9589 66.5577 41.4624 69.1206C34.7466 72.9588 25.1615 71.7167 20.1184 66.3838C17.1125 63.2908 15.8745 59.3699 15.3155 55.1797C15.2286 54.4883 15.0505 53.8258 14.9222 53.1633C14.9346 52.0288 14.9387 50.8944 14.9387 49.7599V49.7557ZM18.2221 48.9194H46.4434C46.2612 39.9305 40.6633 33.5459 33.0118 33.4921C24.615 33.4258 18.5865 39.6572 18.2221 48.9194Z" fill="white"/>
</svg>
