<svg width="101" height="100" viewBox="0 0 101 100" fill="none" xmlns="http://www.w3.org/2000/svg">
<path d="M98.1149 45.5488L54.4512 1.88505C51.9378 -0.628351 47.8593 -0.628351 45.3459 1.88505L36.2777 10.9532L47.7764 22.4519C50.4513 21.5492 53.5155 22.1538 55.6438 24.2862C57.7845 26.4311 58.3849 29.5201 57.4615 32.2033L68.5462 43.2879C71.2294 42.3646 74.3225 42.9608 76.4632 45.1057C79.4569 48.0994 79.4569 52.9482 76.4632 55.9419C73.4695 58.9356 68.6207 58.9356 65.6229 55.9419C63.3703 53.6894 62.8155 50.381 63.9542 47.6067L53.6148 37.2673V64.4718C54.3436 64.832 55.0309 65.3165 55.6396 65.921C58.6334 68.9147 58.6334 73.7635 55.6396 76.7614C52.6459 79.7551 47.793 79.7551 44.8034 76.7614C41.8097 73.7635 41.8097 68.9147 44.8034 65.921C45.5446 65.184 46.3976 64.625 47.3127 64.2482V36.7912C46.3976 36.4185 45.5446 35.8636 44.8034 35.1183C42.5343 32.8534 41.9919 29.5242 43.1513 26.7417L31.814 15.4044L1.88505 45.3459C-0.628351 47.8634 -0.628351 51.942 1.88505 54.4554L45.5487 98.115C48.0622 100.628 52.1407 100.628 54.6583 98.115L98.1191 54.6624C100.632 52.1449 100.632 48.0663 98.1191 45.5529" fill="#F4F4F4"/>
</svg>
