<svg width="37" height="37" viewBox="0 0 37 37" fill="none" xmlns="http://www.w3.org/2000/svg">
<circle cx="18.3696" cy="18.3696" r="18.3696" fill="#F4F4F4"/>
<path fill-rule="evenodd" clip-rule="evenodd" d="M18.6897 11C14.4411 11 11 14.4411 11 18.6897C11 22.0924 13.2012 24.9664 16.2578 25.9853C16.6423 26.0526 16.7865 25.8219 16.7865 25.62C16.7865 25.4374 16.7769 24.8319 16.7769 24.1878C14.8449 24.5435 14.345 23.7168 14.1912 23.2843C14.1047 23.0632 13.7298 22.3808 13.403 22.1981C13.1339 22.0539 12.7494 21.6983 13.3934 21.6887C13.999 21.6791 14.4315 22.2462 14.5757 22.4769C15.2678 23.6399 16.3732 23.3131 16.8153 23.1113C16.8826 22.6115 17.0845 22.275 17.3056 22.0828C15.5946 21.8905 13.8067 21.2273 13.8067 18.286C13.8067 17.4497 14.1047 16.7577 14.5949 16.2194C14.518 16.0271 14.2489 15.2389 14.6718 14.1816C14.6718 14.1816 15.3158 13.9798 16.7865 14.9698C17.4017 14.7968 18.0553 14.7103 18.7089 14.7103C19.3626 14.7103 20.0162 14.7968 20.6314 14.9698C22.102 13.9701 22.746 14.1816 22.746 14.1816C23.169 15.2389 22.8998 16.0271 22.8229 16.2194C23.3131 16.7577 23.6111 17.4401 23.6111 18.286C23.6111 21.2369 21.8136 21.8905 20.1027 22.0828C20.3814 22.3231 20.6217 22.7845 20.6217 23.5054C20.6217 24.5339 20.6121 25.3605 20.6121 25.62C20.6121 25.8219 20.7563 26.0622 21.1408 25.9853C24.1782 24.9664 26.3794 22.0828 26.3794 18.6897C26.3794 14.4411 22.9383 11 18.6897 11Z" fill="black"/>
</svg>
