<svg width="103" height="100" viewBox="0 0 103 100" fill="none" xmlns="http://www.w3.org/2000/svg">
<path fill-rule="evenodd" clip-rule="evenodd" d="M51.2647 0C22.9409 0 0 22.9409 0 51.2647C0 73.9493 14.6745 93.1095 35.0522 99.9021C37.6155 100.351 38.5767 98.8127 38.5767 97.467C38.5767 96.2495 38.5126 92.2124 38.5126 87.9189C25.6323 90.2899 22.3001 84.779 21.2748 81.8953C20.6981 80.4215 18.199 75.8717 16.0202 74.6542C14.226 73.693 11.6627 71.322 15.9561 71.2579C19.9932 71.1938 22.8769 74.9746 23.8381 76.5125C28.4519 84.2663 35.8212 82.0876 38.7689 80.7419C39.2175 77.4097 40.5632 75.1669 42.037 73.8852C30.6307 72.6036 18.7116 68.182 18.7116 48.5733C18.7116 42.9983 20.6981 38.3844 23.9662 34.7959C23.4536 33.5143 21.6593 28.2597 24.4789 21.2108C24.4789 21.2108 28.7723 19.8651 38.5767 26.4654C42.6779 25.3119 47.0354 24.7352 51.3929 24.7352C55.7504 24.7352 60.1079 25.3119 64.209 26.4654C74.0134 19.801 78.3068 21.2108 78.3068 21.2108C81.1264 28.2597 79.3321 33.5143 78.8195 34.7959C82.0876 38.3844 84.0741 42.9342 84.0741 48.5733C84.0741 68.2461 72.091 72.6036 60.6846 73.8852C62.5429 75.4873 64.1449 78.5631 64.1449 83.3692C64.1449 90.2259 64.0809 95.7368 64.0809 97.467C64.0809 98.8127 65.0421 100.415 67.6053 99.9021C87.8549 93.1095 102.529 73.8852 102.529 51.2647C102.529 22.9409 79.5884 0 51.2647 0Z" fill="black"/>
</svg>
