<svg width="40" height="30" viewBox="0 0 40 30" fill="none" xmlns="http://www.w3.org/2000/svg">
<g clip-path="url(#clip0_105_9)">
<path d="M2.72727 30H9.09091V14.5454L0 7.72726V27.2727C0 28.7818 1.22273 30 2.72727 30Z" fill="#4285F4"/>
<path d="M30.9091 30H37.2727C38.7818 30 40 28.7773 40 27.2727V7.72726L30.9091 14.5454" fill="#34A853"/>
<path d="M30.9091 2.72726V14.5454L40 7.72726V4.09089C40 0.718167 36.15 -1.20456 33.4545 0.818167" fill="#FBBC04"/>
<path d="M9.09094 14.5454V2.72726L20 10.9091L30.9091 2.72726V14.5454L20 22.7273" fill="#EA4335"/>
<path d="M0 4.09089V7.72726L9.09091 14.5454V2.72726L6.54546 0.818167C3.84546 -1.20456 0 0.718167 0 4.09089Z" fill="#C5221F"/>
</g>
<defs>
<clipPath id="clip0_105_9">
<rect width="40" height="30" fill="white"/>
</clipPath>
</defs>
</svg>
