<svg width="89" height="100" viewBox="0 0 89 100" fill="none" xmlns="http://www.w3.org/2000/svg">
<path d="M88.1749 0L80.142 89.9895L44.0335 100L8.02445 90.0037L0 0H88.1749Z" fill="#DADADA"/>
<path d="M44.0874 92.3482L73.2648 84.2591L80.1295 7.35889H44.0874V92.3482Z" fill="#F4F4F4"/>
<path d="M28.4717 29.4367H44.0875V18.3979H44.0493H16.408L16.6722 21.3594L19.3853 51.7788H44.0875V40.7403H29.4805L28.4717 29.4367Z" fill="black"/>
<path d="M30.9594 57.2979H24.9856H19.8784L21.4249 74.63L44.0366 80.9072L44.0874 80.8931V69.4083L44.039 69.4212L31.7453 66.1016L30.9594 57.2979Z" fill="black"/>
<path d="M44.0493 51.7787H57.6421L56.3608 66.0949L44.0493 69.4179V80.9021L66.679 74.6303L66.845 72.7654L69.439 43.7044L69.7083 40.7402H66.7337H44.0493V51.7787Z" fill="black"/>
<path d="M44.0493 29.4097V29.4367H70.6773H70.7127L70.9342 26.9555L71.4371 21.3594L71.7011 18.3979H44.0493V25.2539V29.4097Z" fill="black"/>
</svg>
