<svg width="37" height="37" viewBox="0 0 37 37" fill="none" xmlns="http://www.w3.org/2000/svg">
<circle cx="18.3696" cy="18.3696" r="18.3696" fill="#F4F4F4"/>
<path d="M18.5 12.3514C20.5026 12.3514 20.7398 12.359 21.5306 12.3951C22.2619 12.4285 22.659 12.5506 22.9233 12.6533C23.2733 12.7894 23.5232 12.9519 23.7856 13.2144C24.0481 13.4768 24.2106 13.7267 24.3467 14.0767C24.4494 14.341 24.5715 14.7381 24.6049 15.4694C24.641 16.2602 24.6486 16.4974 24.6486 18.5C24.6486 20.5026 24.641 20.7398 24.6049 21.5306C24.5715 22.2619 24.4494 22.659 24.3467 22.9233C24.2106 23.2734 24.0481 23.5232 23.7856 23.7857C23.5232 24.0481 23.2733 24.2107 22.9233 24.3467C22.659 24.4494 22.2619 24.5716 21.5306 24.6049C20.7399 24.641 20.5027 24.6487 18.5 24.6487C16.4973 24.6487 16.2601 24.641 15.4694 24.6049C14.7381 24.5716 14.341 24.4494 14.0767 24.3467C13.7266 24.2107 13.4768 24.0481 13.2143 23.7857C12.9519 23.5232 12.7893 23.2734 12.6533 22.9233C12.5506 22.659 12.4284 22.2619 12.3951 21.5307C12.359 20.7398 12.3513 20.5026 12.3513 18.5C12.3513 16.4974 12.359 16.2602 12.3951 15.4694C12.4284 14.7381 12.5506 14.341 12.6533 14.0767C12.7893 13.7267 12.9519 13.4768 13.2143 13.2144C13.4768 12.9519 13.7266 12.7894 14.0767 12.6533C14.341 12.5506 14.7381 12.4285 15.4693 12.3951C16.2602 12.359 16.4974 12.3514 18.5 12.3514ZM18.5 11C16.4631 11 16.2077 11.0086 15.4078 11.0451C14.6094 11.0816 14.0643 11.2083 13.5872 11.3938C13.094 11.5854 12.6757 11.8419 12.2588 12.2588C11.8418 12.6758 11.5854 13.094 11.3937 13.5872C11.2083 14.0643 11.0815 14.6095 11.0451 15.4078C11.0086 16.2077 11 16.4631 11 18.5C11 20.5369 11.0086 20.7923 11.0451 21.5922C11.0815 22.3906 11.2083 22.9357 11.3937 23.4128C11.5854 23.906 11.8418 24.3243 12.2588 24.7412C12.6757 25.1582 13.094 25.4146 13.5872 25.6063C14.0643 25.7917 14.6094 25.9185 15.4078 25.9549C16.2077 25.9914 16.4631 26 18.5 26C20.5369 26 20.7923 25.9914 21.5922 25.9549C22.3905 25.9185 22.9357 25.7917 23.4128 25.6063C23.906 25.4146 24.3242 25.1582 24.7412 24.7412C25.1581 24.3243 25.4146 23.906 25.6062 23.4128C25.7917 22.9357 25.9184 22.3906 25.9549 21.5922C25.9914 20.7923 26 20.5369 26 18.5C26 16.4631 25.9914 16.2077 25.9549 15.4078C25.9184 14.6095 25.7917 14.0643 25.6062 13.5872C25.4146 13.094 25.1581 12.6758 24.7412 12.2588C24.3242 11.8419 23.906 11.5854 23.4128 11.3938C22.9357 11.2083 22.3905 11.0816 21.5922 11.0451C20.7923 11.0086 20.5369 11 18.5 11ZM18.5 14.6487C16.3729 14.6487 14.6486 16.373 14.6486 18.5C14.6486 20.6271 16.3729 22.3514 18.5 22.3514C20.627 22.3514 22.3513 20.6271 22.3513 18.5C22.3513 16.373 20.627 14.6487 18.5 14.6487ZM18.5 21C17.1193 21 16 19.8807 16 18.5C16 17.1193 17.1193 16 18.5 16C19.8807 16 21 17.1193 21 18.5C21 19.8807 19.8807 21 18.5 21ZM23.4035 14.4965C23.4035 14.9936 23.0006 15.3965 22.5035 15.3965C22.0064 15.3965 21.6035 14.9936 21.6035 14.4965C21.6035 13.9994 22.0064 13.5965 22.5035 13.5965C23.0006 13.5965 23.4035 13.9994 23.4035 14.4965Z" fill="black"/>
</svg>
