<svg width="100" height="100" viewBox="0 0 100 100" fill="none" xmlns="http://www.w3.org/2000/svg">
<path d="M90.0667 0H9.93334C4.44731 0 0 4.44731 0 9.93334V90.0667C0 95.5527 4.44731 100 9.93334 100H90.0667C95.5527 100 100 95.5527 100 90.0667V9.93334C100 4.44731 95.5527 0 90.0667 0Z" fill="#F4F4F4"/>
<path d="M67.1773 78.1251C69.1897 81.4127 71.8107 83.8309 76.4482 83.8309C80.3404 83.8309 82.8289 81.8848 82.8289 79.1975C82.8289 75.9761 80.2741 74.8333 75.9886 72.9576L73.6408 71.9514C66.8585 69.0613 62.3535 65.4424 62.3535 57.7905C62.3535 50.7432 67.7239 45.377 76.1169 45.377C82.0918 45.377 86.3857 47.4555 89.4828 52.9005L82.1664 57.6001C80.5557 54.7099 78.8166 53.5712 76.1169 53.5712C73.4173 53.5712 71.6202 55.3186 71.6202 57.6001C71.6202 60.4198 73.3676 61.5585 77.3964 63.3058L79.7441 64.312C87.7272 67.7363 92.2363 71.2268 92.2363 79.0733C92.2363 87.5326 85.5907 92.1701 76.6635 92.1701C67.7363 92.1701 62.2997 88.0129 59.5379 82.5597L67.1732 78.1251H67.1773ZM33.982 78.9408C35.4602 81.5618 36.8018 83.7729 40.0315 83.7729C43.2611 83.7729 45.0665 82.5638 45.0665 77.8684V45.9152H54.4615V77.9967C54.4615 87.7272 48.7557 92.1576 40.429 92.1576C32.9055 92.1576 28.5495 88.2654 26.3302 83.5741L33.9779 78.9449L33.982 78.9408Z" fill="#0D0D0E"/>
</svg>
