<svg width="52" height="52" viewBox="0 0 52 52" fill="none" xmlns="http://www.w3.org/2000/svg">
<path fill-rule="evenodd" clip-rule="evenodd" d="M52 52H41.3156V33.8021C41.3156 28.8128 39.4198 26.0245 35.4707 26.0245C31.1746 26.0245 28.9301 28.9261 28.9301 33.8021V52H18.6333V17.3333H28.9301V22.0029C28.9301 22.0029 32.026 16.2742 39.3826 16.2742C46.7357 16.2742 52 20.7645 52 30.0512V52ZM6.34935 12.794C2.84206 12.794 0 9.92966 0 6.39701C0 2.86436 2.84206 0 6.34935 0C9.85664 0 12.697 2.86436 12.697 6.39701C12.697 9.92966 9.85664 12.794 6.34935 12.794ZM1.03255 52H11.7694V17.3333H1.03255V52Z" fill="white"/>
</svg>
