<svg width="37" height="37" viewBox="0 0 37 37" fill="none" xmlns="http://www.w3.org/2000/svg">
<circle cx="18.3696" cy="18.3696" r="18.3696" fill="#F4F4F4"/>
<path fill-rule="evenodd" clip-rule="evenodd" d="M27 25H23.918V19.7506C23.918 18.3114 23.3711 17.5071 22.2319 17.5071C20.9927 17.5071 20.3452 18.3441 20.3452 19.7506V25H17.375V15H20.3452V16.347C20.3452 16.347 21.2383 14.6945 23.3604 14.6945C25.4814 14.6945 27 15.9898 27 18.6686V25ZM13.8315 13.6906C12.8198 13.6906 12 12.8643 12 11.8453C12 10.8263 12.8198 10 13.8315 10C14.8433 10 15.6626 10.8263 15.6626 11.8453C15.6626 12.8643 14.8433 13.6906 13.8315 13.6906ZM12.2979 25H15.395V15H12.2979V25Z" fill="black"/>
</svg>
