<svg width="89" height="100" viewBox="0 0 89 100" fill="none" xmlns="http://www.w3.org/2000/svg">
<path d="M44.3375 0C42.9899 0 41.6789 0.279083 40.5185 0.936398L3.81904 22.1284C1.44316 23.4944 0 26.0796 0 28.8301V71.1406C0 73.8873 1.44316 76.4689 3.81904 77.8422L13.4033 83.3652C18.0596 85.6603 19.7782 85.6235 21.897 85.6235C28.7897 85.6235 32.7262 81.4409 32.7262 74.1701V32.4288C32.7262 31.8375 32.2158 31.4152 31.6356 31.4152H27.038C26.4505 31.4152 25.9474 31.8486 25.9474 32.4288V74.1921C25.9474 77.4163 22.5911 80.6588 17.1416 77.934L7.17905 72.0917C6.82653 71.9007 6.55479 71.5518 6.55479 71.1553V28.8447C6.55479 28.4445 6.82285 28.0332 7.17905 27.8312L43.8014 6.71269C44.1429 6.5144 44.5542 6.5144 44.892 6.71269L81.5144 27.8312C81.8632 28.0405 82.1387 28.4298 82.1387 28.8447V71.1553C82.1387 71.5592 81.9367 71.9741 81.5915 72.1688L44.892 93.2873C44.5689 93.4746 44.1356 93.4746 43.8014 93.2873L34.3713 87.6763C34.0886 87.511 33.7067 87.5257 33.4349 87.6763C30.8314 89.1525 30.343 89.3214 27.9047 90.1697C27.3024 90.379 26.3881 90.7058 28.2168 91.7303L40.5295 98.9865C41.7009 99.6658 43.0082 100 44.3486 100C45.6889 100 46.9925 99.6768 48.1676 98.9865L84.8671 77.868C87.243 76.4872 88.6861 73.9167 88.6861 71.1663V28.8558C88.6861 26.109 87.243 23.5275 84.8671 22.1541L48.1676 0.958431C47.0182 0.301116 45.6999 0.0220329 44.3486 0.0220329L44.3339 0L44.3375 0ZM54.1569 30.2328C43.7059 30.2328 37.4816 34.6798 37.4816 42.0755C37.4816 50.0881 43.6582 52.3024 53.6905 53.2939C65.6911 54.469 66.6238 56.2316 66.6238 58.5928C66.6238 62.6909 63.3593 64.4352 55.6367 64.4352C45.9386 64.4352 43.8051 62.0153 43.0927 57.1791C43.0082 56.6613 42.608 56.2427 42.0792 56.2427H37.3127C36.7142 56.2573 36.2368 56.7347 36.2221 57.3333C36.2221 63.5098 39.5821 70.8137 55.6257 70.8137C67.2371 70.8137 73.9351 66.264 73.9351 58.2697C73.9351 50.2754 68.526 48.2263 57.2598 46.7355C45.8872 45.2189 44.7929 44.4954 44.7929 41.8258C44.7929 39.6262 45.7146 36.6811 54.1422 36.6811C61.6738 36.6811 64.4536 38.3042 65.5956 43.3828C65.6948 43.8602 66.1171 44.2494 66.6091 44.2494H71.3756C71.6694 44.2494 71.9521 44.0695 72.1541 43.8602C72.3524 43.6362 72.4956 43.3828 72.4662 43.0817C71.7281 34.3383 65.9004 30.2255 54.1569 30.2255V30.2328Z" fill="black"/>
</svg>
