<svg width="98" height="100" viewBox="0 0 98 100" fill="none" xmlns="http://www.w3.org/2000/svg">
<path d="M69.6941 0C65.8099 0.028117 61.9458 0.594474 58.2143 1.67899L57.9532 1.76334C55.5994 1.3456 53.2175 1.11665 50.8276 1.07648C45.9191 0.99213 41.7016 2.1851 38.3034 4.16936C34.9535 3.00852 28.0046 1.00418 20.6781 1.40184C15.5768 1.67899 10.0137 3.22944 5.8885 7.58357C1.77538 11.9377 -0.39767 18.6737 0.0602358 27.8399C0.184754 30.3704 0.907764 34.4956 2.10073 39.8338C3.29771 45.176 4.9767 51.4301 7.06941 57.1338C9.16614 62.8416 11.4597 67.9669 15.0466 71.4494C16.8381 73.1967 19.3043 74.6628 22.2124 74.5423C24.2529 74.4579 26.1006 73.5622 27.6913 72.2407C28.4665 73.261 29.2939 73.7068 30.0491 74.1205C30.997 74.6427 31.9249 74.9962 32.8809 75.2291C34.6 75.6589 37.5483 76.2333 40.9986 75.6469C42.1755 75.4501 43.4127 75.0685 44.6458 74.5222C44.69 75.8959 44.7462 77.2415 44.7985 78.6072C44.9712 82.9252 45.0756 86.9098 46.373 90.4083C46.5819 90.9787 47.1523 93.9189 49.4016 96.5178C51.651 99.1166 56.0613 100.739 61.0782 99.6629C64.621 98.9037 69.1237 97.538 72.1162 93.2803C75.0725 89.0708 76.406 83.0336 76.6711 73.2449C76.7394 72.7147 76.8157 72.2648 76.9001 71.8431L77.603 71.9073H77.6874C81.4671 72.08 85.5642 71.5418 88.9904 69.9472C92.023 68.5413 94.3206 67.1234 95.9916 64.6009C96.4093 63.9743 96.8672 63.2232 96.9917 61.9218C97.1162 60.6203 96.3691 58.5879 95.132 57.652C92.6537 55.7681 91.0952 56.4871 89.4242 56.8326C87.7774 57.1981 86.1024 57.3989 84.4154 57.4391C89.2314 49.3253 92.6858 40.7095 94.658 33.0857C95.8229 28.587 96.4776 24.4377 96.5338 20.8066C96.586 17.1795 96.2928 13.9661 94.1158 11.1866C87.3275 2.4984 77.7717 0.100418 70.381 0.0160669C70.152 0.0120502 69.923 0.00803344 69.6941 0.0120502V0ZM69.4973 2.6671C76.4904 2.59882 85.4196 4.56299 91.8343 12.7571C93.2763 14.5968 93.7061 17.292 93.6538 20.6058C93.6016 23.9196 92.9871 27.8841 91.8664 32.2302C89.6934 40.6452 85.5842 50.458 79.7962 59.2627C80.001 59.4073 80.2219 59.5278 80.4549 59.6202C81.6639 60.1182 84.4154 60.548 89.9143 59.4193C91.296 59.1261 92.3082 58.9333 93.3606 59.7326C93.8788 60.1705 94.1599 60.8252 94.1238 61.504C94.0676 62.0101 93.8828 62.4921 93.5815 62.9059C92.5171 64.5005 90.4244 66.0148 87.7372 67.26C85.3593 68.3686 81.9451 68.947 78.9205 68.9791C77.4022 68.9952 76.0044 68.8787 74.8154 68.5092L74.7391 68.4811C74.2812 72.8995 73.2248 81.6157 72.5379 85.5963C71.9876 88.8057 71.0236 91.3563 69.188 93.2642C67.3564 95.1722 64.7575 96.3209 61.267 97.0721C56.941 97.9999 53.7879 96.9998 51.7554 95.2887C49.727 93.5815 48.7991 91.3121 48.2408 89.9263C47.8592 88.9663 47.6584 87.7252 47.4656 86.0663C47.2728 84.4074 47.1322 82.3789 47.0358 80.0934C46.9072 76.5908 46.8671 73.0842 46.9113 69.5816C45.1037 71.2365 42.8584 72.3371 40.4443 72.7468C37.5724 73.2328 35.0097 72.7548 33.4834 72.3733C32.7282 72.1845 32.0012 71.9033 31.3184 71.5378C30.6114 71.1602 29.9366 70.7304 29.4867 69.8829C29.2216 69.3969 29.1373 68.8345 29.2497 68.2963C29.3903 67.75 29.7117 67.264 30.1575 66.9186C30.9809 66.2478 32.0735 65.8742 33.7203 65.5328C36.7168 64.9142 37.7612 64.4965 38.3998 63.9904C38.9421 63.5566 39.5526 62.6809 40.6371 61.3996C40.6331 61.3433 40.6291 61.2871 40.6251 61.2269C38.685 61.1706 36.7891 60.6605 35.082 59.7367C34.4554 60.3954 31.2661 63.7694 27.3739 68.4529C25.7351 70.4131 23.9276 71.5378 22.0196 71.6141C20.1117 71.6984 18.3885 70.7344 16.9184 69.3125C13.9902 66.4687 11.6525 61.5723 9.61601 56.0373C7.58355 50.5062 5.92866 44.3406 4.75578 39.0907C3.57487 33.8409 2.87997 29.6072 2.77956 27.5667C2.34173 18.8906 4.37018 13.0463 7.84866 9.35896C11.3312 5.67161 16.107 4.27781 20.7584 4.00869C29.1132 3.5307 37.0462 6.44282 38.6489 7.06541C41.7417 4.96467 45.7223 3.65923 50.699 3.73957C53.0609 3.7717 55.4106 4.07697 57.7042 4.64735L57.7885 4.61119C58.7967 4.25772 59.825 3.96049 60.8694 3.71948C63.7011 3.06074 66.5932 2.70727 69.4973 2.67514V2.6671ZM70.1359 5.45872H69.5294C67.1435 5.49086 64.7656 5.75998 62.4278 6.25805C67.6175 8.55963 71.5418 12.0984 74.3013 15.6331C76.2213 18.0793 77.8079 20.7705 79.0169 23.6344C79.4748 24.735 79.7841 25.6628 79.9568 26.3858C80.0452 26.7473 80.1014 27.0526 80.1215 27.3699C80.1295 27.5266 80.1376 27.6913 80.0733 27.9684C80.0733 27.9805 80.0532 28.0086 80.0492 28.0206C80.1737 31.6718 79.27 34.1461 79.1615 37.6286C79.0772 40.1552 79.7238 43.1195 79.8805 46.357C80.0291 49.3976 79.6636 52.7395 77.6874 56.0172C77.8521 56.218 78.0047 56.4188 78.1613 56.6157C83.3871 48.3854 87.1508 39.2835 89.1591 31.5232C90.2356 27.3458 90.806 23.5581 90.8542 20.5576C90.8943 17.5571 90.336 15.384 89.6251 14.4763C84.0338 7.3265 76.4663 5.50692 70.1279 5.45471L70.1359 5.45872ZM50.1768 6.53119C45.2524 6.54324 41.7176 8.02942 39.0385 10.2587C36.275 12.5643 34.4233 15.7174 33.2062 18.9469C31.7602 22.7788 31.2661 26.4863 31.0693 29.0047L31.1215 28.9726C32.6077 28.1411 34.5639 27.3057 36.6526 26.8237C38.7453 26.3457 40.9986 26.193 43.0391 26.9843C45.0796 27.7756 46.7667 29.6394 47.3812 32.4631C50.3134 46.0316 46.4694 51.0806 45.0515 54.8885C44.5133 56.2702 44.0554 57.6761 43.6738 59.1101C43.8545 59.0699 44.0313 59.0177 44.212 59.0016C45.2122 58.9172 45.9954 59.2506 46.4614 59.4515C47.8873 60.0419 48.8674 61.2831 49.3936 62.701C49.5302 63.0705 49.6306 63.4722 49.6908 63.8859C49.7511 64.0546 49.7792 64.2354 49.7752 64.4161C49.6185 69.6057 49.6346 74.7994 49.8274 79.989C49.9238 82.2303 50.0644 84.2065 50.2451 85.765C50.4259 87.3195 50.6789 88.5004 50.8396 88.9021C51.3738 90.2356 52.1531 91.9829 53.5589 93.1678C54.9688 94.3528 56.9892 95.144 60.6806 94.3528C63.8819 93.6659 65.8541 92.7099 67.1756 91.3402C68.4931 89.9705 69.2804 88.0626 69.7825 85.1424C70.5376 80.7682 72.0519 68.0794 72.2367 65.6935C72.1523 63.894 72.4214 62.5122 72.9958 61.4558C73.5863 60.3713 74.5021 59.7085 75.2974 59.3511C75.6951 59.1703 76.0646 59.0498 76.3699 58.9655C76.0486 58.5035 75.7111 58.0496 75.3577 57.6118C74.2169 56.226 73.281 54.6836 72.5821 53.0328C72.2487 52.3499 71.8912 51.6791 71.5097 51.0204C70.9553 50.0202 70.2564 48.771 69.5214 47.3652C68.0553 44.5535 66.4606 41.1433 65.6292 37.8255C64.8057 34.5076 64.6852 31.0774 66.798 28.6553C68.6739 26.5063 71.9635 25.6146 76.9041 26.1127C76.7595 25.6749 76.6711 25.3134 76.4261 24.7309C75.3095 22.1 73.8514 19.6297 72.0881 17.3803C67.9026 12.0261 61.1224 6.71997 50.6468 6.54725H50.1688V6.53922L50.1768 6.53119ZM22.5016 6.74809C21.9714 6.74809 21.4453 6.76416 20.9191 6.79227C16.7095 7.03328 12.733 8.25436 9.88513 11.2709C7.03728 14.2875 5.16147 19.2321 5.56716 27.4181C5.64749 28.9686 6.3223 33.3107 7.47912 38.4681C8.63192 43.6256 10.2707 49.6949 12.2389 55.0572C14.2111 60.4195 16.5971 65.0869 18.8625 67.2921C20.0033 68.3967 20.9954 68.8426 21.8951 68.8064C22.7989 68.7663 23.8874 68.2441 25.217 66.6494C27.639 63.7253 30.1535 60.8814 32.7563 58.1179C29.0047 54.8604 27.1691 49.9118 27.8961 44.9953C28.3259 41.9145 28.3821 39.0385 28.3339 36.761C28.2857 34.5438 28.1251 33.0697 28.1251 32.1498C28.1251 32.1217 28.1251 32.0976 28.1251 32.0695V32.0253L28.121 32.0213C28.121 27.2253 28.9525 22.4655 30.5873 17.9547C31.7522 14.8538 33.4914 11.7047 36.0942 9.15411C33.5356 8.31059 28.9927 7.02926 24.0802 6.78826C23.554 6.76014 23.0238 6.74809 22.4976 6.74809H22.5016ZM74.1567 28.7557C71.3289 28.7918 69.7383 29.5229 68.9068 30.4749C67.7259 31.8285 67.6134 34.2024 68.3485 37.1306C69.0795 40.0588 70.5858 43.3324 72.0037 46.0557C72.7107 47.4174 73.3975 48.6425 73.9518 49.6386C74.5101 50.6388 74.9199 51.3457 75.1689 51.9523C75.3978 52.5106 75.6509 53.0006 75.912 53.4585C77.0085 51.1449 77.2054 48.8755 77.0929 46.5096C76.9483 43.5814 76.2695 40.5849 76.3699 37.5523C76.4824 34.0056 77.1813 31.7 77.2455 28.9565C76.2213 28.824 75.193 28.7557 74.1607 28.7557H74.1567ZM39.8499 29.2337C38.9863 29.2417 38.1267 29.3462 37.2832 29.543C35.6042 29.9487 33.9895 30.5793 32.4792 31.4148C31.9691 31.6879 31.483 32.0052 31.0251 32.3627L30.9327 32.4471C30.9568 33.0536 31.0773 34.5317 31.1296 36.7008C31.1778 39.0747 31.1215 42.1033 30.6636 45.3849C29.6675 52.5106 34.837 58.4071 40.9143 58.4192C41.2678 56.9571 41.8502 55.4749 42.4366 53.9124C44.1277 49.3534 47.4575 46.0276 44.6539 33.0536C44.196 30.9287 43.2882 30.0692 42.039 29.5872C41.3401 29.3381 40.597 29.2216 39.8539 29.2377L39.8499 29.2337ZM72.8352 30.0852H73.044C73.3172 30.0933 73.5742 30.1214 73.7952 30.1776C74.0201 30.2258 74.2129 30.3021 74.3696 30.4066C74.5342 30.507 74.6467 30.6757 74.6829 30.8645V30.8966H74.6788C74.6869 31.0934 74.6347 31.2902 74.5342 31.459C74.4097 31.6879 74.2571 31.8968 74.0763 32.0856C73.6546 32.5515 73.0882 32.8608 72.4697 32.9692C71.8671 33.0415 71.2566 32.8889 70.7625 32.5395C70.5577 32.4029 70.3769 32.2382 70.2203 32.0494C70.0837 31.9008 69.9954 31.716 69.9592 31.5192C69.9431 31.3264 70.0034 31.1336 70.1359 30.985C70.2725 30.8283 70.4372 30.7038 70.622 30.6114C71.0236 30.3865 71.5619 30.2178 72.1764 30.1294C72.4054 30.0973 72.6303 30.0812 72.8432 30.0772V30.0893L72.8352 30.0852ZM40.2556 30.7841C40.4765 30.7841 40.7094 30.8042 40.9464 30.8364C41.5851 30.9247 42.1514 31.0934 42.5853 31.3465C42.7981 31.4549 42.9829 31.6076 43.1396 31.7883C43.3083 31.9811 43.3926 32.2382 43.3645 32.4953C43.3243 32.7363 43.2159 32.9572 43.0512 33.1379C42.8825 33.3468 42.6817 33.5316 42.4567 33.6802C41.9145 34.0658 41.2477 34.2305 40.5889 34.1502C39.9141 34.0377 39.2996 33.7043 38.8377 33.2022C38.6408 32.9974 38.4761 32.7684 38.3476 32.5194C38.211 32.2984 38.1508 32.0414 38.1749 31.7803C38.2392 31.3304 38.6087 31.0974 38.9702 30.9689C39.3839 30.8364 39.8177 30.7801 40.2475 30.8042V30.7882L40.2556 30.7841ZM78.0087 61.3795H77.9967C77.3861 61.6044 76.88 61.6968 76.4542 61.8856C76.0244 62.0503 75.671 62.3676 75.4581 62.7773C75.197 63.2553 74.9721 64.1068 75.0363 65.5529C75.2251 65.6814 75.434 65.7818 75.6549 65.8461C76.3659 66.063 77.5629 66.2036 78.8964 66.1835C81.5555 66.1554 84.8251 65.5328 86.5643 64.7254C87.9903 64.0627 89.3118 63.1991 90.4927 62.1628H90.4887C84.6845 63.3638 81.4069 63.0424 79.3945 62.211C78.8964 62.0021 78.4305 61.7209 78.0127 61.3795H78.0087ZM44.5494 61.7772H44.4611C44.2401 61.7972 43.9188 61.8736 43.3002 62.5604C41.8502 64.1872 41.3401 65.2074 40.1471 66.1594C38.9501 67.1073 37.3956 67.6175 34.2947 68.2561C33.3106 68.457 32.7483 68.6779 32.3747 68.8546C32.4953 68.955 32.4832 68.9791 32.668 69.0755C33.1219 69.3246 33.7043 69.5455 34.1742 69.666C35.5078 69.9994 37.7009 70.385 39.9864 69.9994C42.2719 69.6057 44.6539 68.5132 46.6823 65.6653C47.0318 65.1753 47.0679 64.4483 46.7827 63.669C46.4895 62.8898 45.8549 62.219 45.405 62.0302C45.1359 61.9017 44.8507 61.8173 44.5534 61.7812V61.7731L44.5494 61.7772Z" fill="#F4F4F4"/>
</svg>
