<svg width="113" height="100" viewBox="0 0 113 100" fill="none" xmlns="http://www.w3.org/2000/svg">
<path d="M56.1159 60.0057C61.6418 60.0057 66.1215 55.526 66.1215 50.0001C66.1215 44.4742 61.6418 39.9945 56.1159 39.9945C50.5899 39.9945 46.1103 44.4742 46.1103 50.0001C46.1103 55.526 50.5899 60.0057 56.1159 60.0057Z" fill="black"/>
<path d="M112.236 49.9953C112.236 42.1368 103.025 35.3146 88.6747 31.2017C92.2856 16.7162 90.9844 5.32568 84.1761 1.39408C77.3679 -2.52822 66.8511 2.04005 56.1112 12.4081C45.3807 2.0447 34.8685 -2.52357 28.0603 1.39408C21.252 5.33033 19.9508 16.7162 23.5617 31.2017C9.2109 35.3146 0 42.1368 0 49.9953C0 57.8538 9.19231 64.6668 23.5199 68.7796C22.9575 70.9917 22.5114 73.148 22.1768 75.2347C20.29 87.0202 22.3813 95.3155 28.0603 98.5965C29.6961 99.5446 31.5504 100 33.5626 100C39.9341 100 47.9599 95.4735 56.1159 87.5918C64.2718 95.4689 72.3023 100 78.6738 100C80.6907 100 82.5403 99.5446 84.1808 98.5965C89.8597 95.3202 91.951 87.0248 90.0596 75.2347C89.725 73.1527 89.2742 70.9963 88.7119 68.7842C103.044 64.6714 112.241 57.8538 112.241 49.9953H112.236ZM78.539 4.84236C79.7566 4.84236 80.8347 5.09796 81.741 5.62311C86.1559 8.17446 87.1225 17.3993 83.967 29.9934C79.3708 28.9385 74.3518 28.1438 69.026 27.6512C65.9309 23.2828 62.7382 19.3372 59.5223 15.8843C66.9394 8.70425 73.8127 4.84701 78.539 4.84701V4.84236ZM56.1159 80.6255C53.9502 78.274 51.7567 75.6576 49.5772 72.7855C51.7195 72.8831 53.9038 72.9343 56.1205 72.9343C58.3373 72.9343 60.5168 72.8831 62.6592 72.7855C60.4797 75.6576 58.2861 78.2786 56.1159 80.6255ZM56.1159 68.0546C52.5793 68.0546 49.1728 67.9245 45.9058 67.6782C44.0608 64.9735 42.2484 62.0875 40.4778 59.0296C38.7118 55.9671 37.1178 52.9463 35.6957 49.9953C37.1457 46.9932 38.7443 43.9771 40.4778 40.9703C42.2437 37.9077 44.0608 35.0218 45.9058 32.3217C49.1728 32.0754 52.5839 31.9453 56.1159 31.9453C59.6478 31.9453 63.0589 32.0754 66.3259 32.3217C68.1709 35.0218 69.9833 37.9124 71.754 40.9703C73.4874 43.9724 75.0861 46.9932 76.536 49.9953C75.1139 52.9417 73.5199 55.9671 71.754 59.025C69.988 62.0875 68.1709 64.9735 66.3259 67.6735C63.0635 67.9198 59.6524 68.05 56.1159 68.05V68.0546ZM39.6459 67.0555C36.0629 66.6047 32.6936 66.0145 29.5706 65.3081C30.5466 62.1944 31.7316 58.9831 33.1026 55.7254C34.0924 57.6261 35.1381 59.5455 36.2488 61.4648C37.3595 63.3841 38.4887 65.2477 39.6459 67.0555ZM33.1118 44.2652C31.7084 40.9424 30.5419 37.7358 29.5892 34.6825C32.7029 33.9808 36.0675 33.3906 39.6413 32.9444C38.4841 34.7476 37.3502 36.6111 36.2488 38.5258C35.1474 40.4312 34.1017 42.3459 33.1118 44.2652ZM56.1159 19.3698C58.2815 21.7213 60.475 24.3377 62.6546 27.2144C60.5122 27.1168 58.3326 27.0656 56.1159 27.0656C53.8991 27.0656 51.7195 27.1168 49.5725 27.2144C51.7521 24.3423 53.9456 21.7213 56.1159 19.3698ZM75.9783 61.4648C77.089 59.5455 78.1347 57.6308 79.1245 55.7254C80.5001 58.9878 81.6852 62.1944 82.6611 65.3127C79.5381 66.0145 76.1642 66.6093 72.5812 67.0601C73.7383 65.257 74.8723 63.3888 75.9783 61.4694V61.4648ZM75.9783 38.5258C74.8676 36.6111 73.7383 34.7429 72.5858 32.9398C76.1596 33.3906 79.5242 33.9808 82.6425 34.6825C81.6898 37.7311 80.5187 40.9424 79.1199 44.2652C78.1254 42.3505 77.0797 40.4312 75.9783 38.5258ZM30.4954 5.62311C31.4017 5.10261 32.4798 4.84236 33.6974 4.84236C38.4237 4.84236 45.3017 8.6996 52.7094 15.875C49.4981 19.3326 46.3008 23.2735 43.2057 27.6466C37.8753 28.1438 32.8655 28.9338 28.2647 29.9888C25.1046 17.3993 26.0712 8.16981 30.4908 5.61846L30.4954 5.62311ZM4.87964 49.9953C4.87964 44.8926 12.3896 39.446 24.8676 35.8862C26.2571 40.394 28.0742 45.1389 30.3095 50C28.0974 54.7913 26.2618 59.5362 24.8443 64.1044C12.3803 60.5446 4.87964 55.098 4.87964 50V49.9953ZM30.4954 94.3722C26.7497 92.2112 25.4717 85.5144 26.9914 76.0108C27.3028 74.0728 27.721 72.0606 28.2415 70.0018C32.847 71.0614 37.8753 71.8561 43.215 72.3534C46.3055 76.7171 49.4981 80.6673 52.7094 84.1203C43.3823 93.1499 34.9057 96.9282 30.4954 94.3768V94.3722ZM85.2404 76.0108C86.76 85.5144 85.4867 92.2112 81.741 94.3722C77.326 96.9374 68.8494 93.1546 59.5223 84.1203C62.7336 80.6673 65.9309 76.7218 69.0214 72.3487C74.3657 71.8514 79.3941 71.0568 83.9949 69.9972C84.5107 72.0606 84.9336 74.0682 85.2404 76.0061V76.0108ZM87.392 64.1044C85.9746 59.5408 84.1343 54.7959 81.9268 50C84.1668 45.1389 85.9839 40.3987 87.3735 35.8908C99.8514 39.4506 107.361 44.9019 107.361 50C107.361 55.098 99.8607 60.5446 87.392 64.1044Z" fill="black"/>
</svg>
