<svg width="106" height="100" viewBox="0 0 106 100" fill="none" xmlns="http://www.w3.org/2000/svg">
<path d="M72.9757 69.8312C76.8613 69.43 79.8093 66.0765 79.6785 62.0557C79.5433 58.035 76.1941 54.8166 72.1733 54.8166H71.9073C67.7514 54.9518 64.5374 58.4362 64.6682 62.5921C64.8034 64.6025 65.6058 66.3469 66.8138 67.5505C62.2566 76.5296 55.2879 83.0971 44.8348 88.5919C37.7309 92.3466 30.3609 93.6854 22.9866 92.7478C16.9555 91.9454 12.2632 89.2634 9.31518 84.8415C5.02841 78.274 4.62284 71.17 8.24239 64.0661C10.7892 58.9726 14.8099 55.2178 17.3567 53.3426C16.8203 51.5983 16.0179 48.6503 15.6123 46.5091C-3.81988 60.5817 -1.8095 79.6128 4.08645 88.5962C8.50841 95.2989 17.4875 99.4549 27.4086 99.4549C30.0905 99.4549 32.7681 99.1845 35.4501 98.5173C52.6059 95.1681 65.6058 84.981 72.9757 69.8356V69.8312ZM96.5639 53.2118C86.3768 41.2847 71.3665 34.7172 54.2107 34.7172H52.0652C50.8572 32.3056 48.3104 30.6964 45.4976 30.6964H45.2273C41.0713 30.8316 37.8573 34.316 37.9882 38.4719C38.1233 42.4927 41.4725 45.711 45.4933 45.711H45.7593C48.7073 45.5759 51.254 43.7007 52.3268 41.1539H54.7384C64.9255 41.1539 74.5762 44.1019 83.2849 49.867C89.9876 54.289 94.8108 60.0541 97.4928 67.0228C99.7691 72.6527 99.6383 78.1475 97.2224 82.8398C93.472 89.9437 87.1705 93.8293 78.863 93.8293C73.5034 93.8293 68.4099 92.2201 65.7279 91.0165C64.2539 92.3553 61.572 94.5009 59.6968 95.8441C65.4619 98.526 71.3578 100 76.9878 100C89.8524 100 99.3723 92.8961 102.988 85.7922C106.873 78.0167 106.607 64.6156 96.5552 53.2205L96.5639 53.2118ZM28.477 72.1076C28.6122 76.1284 31.9614 79.3467 35.9821 79.3467H36.2525C40.4085 79.2115 43.6224 75.7272 43.4916 71.5712C43.3564 67.5505 40.0073 64.3321 35.9865 64.3321H35.7205C35.4501 64.3321 35.0489 64.3321 34.7829 64.4673C29.2881 55.353 27.0074 45.4363 27.8142 34.7128C28.3505 26.6713 31.0325 19.7026 35.7205 13.9375C39.6061 8.97911 47.1112 6.56753 52.2047 6.43234C66.4126 6.16196 72.4437 23.8542 72.8449 30.9581C74.5893 31.3593 77.5372 32.2969 79.5476 32.9685C77.9341 11.2599 64.533 0 51.6683 0C39.6061 0 28.4814 8.7131 24.0594 21.5778C17.8931 38.7336 21.9138 55.2178 29.419 68.2221C28.7474 69.1597 28.3462 70.6336 28.4814 72.1076H28.477Z" fill="black"/>
</svg>
