<svg width="100" height="60" viewBox="0 0 140 85" fill="none" xmlns="http://www.w3.org/2000/svg">
<path d="M68.4751 0.0275831C43.8455 0.810394 36.5252 18.4045 34.8477 27.9361C37.0335 24.403 43.9217 16.6508 54.0633 16.6508C65.8825 16.6508 74.8803 29.8426 80.3705 33.9602C87.0407 38.9628 100.444 45.5682 118.039 40.2129C132.07 35.9428 138.577 21.0479 140 13.9818C133.214 23.2084 122.92 28.7503 110.185 22.2171C101.416 17.7182 94.8585 -0.811044 68.4751 0.0275831Z" fill="black"/>
<path d="M33.6275 41.8904C8.99782 42.6732 1.67756 60.2673 0 69.7989C2.18591 66.2658 9.07407 58.5136 19.2157 58.5136C31.0349 58.5136 40.0327 71.7053 45.5229 75.823C52.193 80.8256 65.5961 87.4309 83.1917 82.0757C97.2222 77.8056 103.729 62.9107 105.153 55.8446C98.366 65.0712 88.0719 70.6131 75.3377 64.0799C66.5686 59.581 60.0109 41.0517 33.6275 41.8904Z" fill="black"/>
</svg>
