<svg width="100" height="60" viewBox="0 0 140 85" fill="none" xmlns="http://www.w3.org/2000/svg">
<path d="M68.4729 0.0275837C43.8427 0.810411 36.5223 18.4049 34.8447 27.9367C37.0306 24.4035 43.919 16.6512 54.0608 16.6512C65.8803 16.6512 74.8783 29.8432 80.3686 33.9609C87.0389 38.9637 100.442 45.5691 118.038 40.2138C132.069 35.9436 138.576 21.0483 140 13.9821C133.213 23.2089 122.919 28.7509 110.184 22.2176C101.415 17.7186 94.8569 -0.811062 68.4729 0.0275837Z" fill="#F4F4F4"/>
<path d="M33.6282 41.8957C8.99802 42.6786 1.6776 60.2731 0 69.8049C2.18595 66.2717 9.07427 58.5194 19.2161 58.5194C31.0355 58.5194 40.0336 71.7114 45.5239 75.8291C52.1941 80.8319 65.5975 87.4373 83.1935 82.082C97.2243 77.8117 103.731 62.9165 105.155 55.8503C98.3682 65.0771 88.0738 70.6191 75.3393 64.0858C66.5701 59.5868 60.0122 41.0571 33.6282 41.8957Z" fill="#F4F4F4"/>
</svg>
