<svg width="37" height="37" viewBox="0 0 37 37" fill="none" xmlns="http://www.w3.org/2000/svg">
<circle cx="18.3696" cy="18.3696" r="18.3696" fill="#F4F4F4"/>
<path d="M27.2 13.6572C26.5672 13.9384 25.887 14.1283 25.1733 14.2138C25.9018 13.7764 26.4614 13.0838 26.7248 12.2584C26.043 12.6635 25.2878 12.9576 24.4839 13.1161C23.8403 12.4291 22.9232 12 21.9082 12C19.9595 12 18.3794 13.5824 18.3794 15.5342C18.3794 15.8112 18.4106 16.081 18.4708 16.3397C15.538 16.1923 12.9379 14.7852 11.1974 12.6469C10.8937 13.1689 10.7196 13.7759 10.7196 14.4237C10.7196 15.6499 11.3426 16.7317 12.2895 17.3655C11.711 17.3471 11.1669 17.1881 10.6912 16.9234C10.6908 16.9381 10.6908 16.953 10.6908 16.9679C10.6908 18.6802 11.9071 20.1086 13.5214 20.4335C13.2253 20.5143 12.9136 20.5575 12.5918 20.5575C12.3644 20.5575 12.1434 20.5352 11.9279 20.4941C12.377 21.8981 13.6801 22.92 15.2243 22.9484C14.0166 23.8964 12.4951 24.4614 10.8418 24.4614C10.5569 24.4614 10.2761 24.4447 10 24.412C11.5617 25.4149 13.4165 26 15.4093 26C21.9 26 25.4495 20.6146 25.4495 15.944C25.4495 15.7907 25.4461 15.6384 25.4393 15.4867C26.1286 14.9885 26.7269 14.366 27.2 13.6572Z" fill="black"/>
</svg>
