<svg width="100" height="100" viewBox="0 0 100 100" fill="none" xmlns="http://www.w3.org/2000/svg">
<path d="M90.2323 0H9.76771C4.37315 0 0 4.37315 0 9.76771V90.2323C0 95.6268 4.37315 100 9.76771 100H90.2323C95.6268 100 100 95.6268 100 90.2323V9.76771C100 4.37315 95.6268 0 90.2323 0Z" fill="#F4F4F4"/>
<path fill-rule="evenodd" clip-rule="evenodd" d="M61.9022 79.5744V89.3504C63.4922 90.1661 65.3721 90.7747 67.5417 91.1847C69.7114 91.5946 72.0012 91.7975 74.4027 91.7975C76.8043 91.7975 78.974 91.5739 81.0816 91.1267C83.1891 90.6795 85.04 89.9383 86.63 88.9114C88.22 87.8846 89.4787 86.5389 90.4062 84.8785C91.3337 83.2181 91.7975 81.1644 91.7975 78.7214C91.7975 76.9492 91.5325 75.3965 91.0025 74.0632C90.4725 72.7299 89.7065 71.5416 88.7086 70.5023C87.7107 69.463 86.514 68.5313 85.1187 67.7074C83.7233 66.8834 82.1498 66.1049 80.3942 65.3721C79.1106 64.8421 77.9595 64.3286 76.9409 63.8276C75.9224 63.3266 75.057 62.8173 74.3406 62.2997C73.6284 61.7821 73.0777 61.2314 72.6885 60.6517C72.3035 60.0721 72.1088 59.4137 72.1088 58.6808C72.1088 58.01 72.2827 57.4014 72.6306 56.8631C72.9784 56.3248 73.467 55.8611 74.0963 55.4718C74.7299 55.0868 75.5041 54.7845 76.4192 54.5692C77.3384 54.3539 78.357 54.2504 79.475 54.2504C80.2907 54.2504 81.1519 54.3125 82.0587 54.4325C82.9655 54.5568 83.8765 54.7431 84.7957 54.9998C85.7108 55.2565 86.6051 55.5754 87.4705 55.9604C88.3359 56.3455 89.135 56.7968 89.8679 57.3061V48.1719C88.3815 47.6005 86.7542 47.1782 84.9944 46.9049C83.2347 46.6316 81.2099 46.4908 78.9284 46.4908C76.647 46.4908 74.4027 46.7393 72.3242 47.2403C70.2456 47.7413 68.4154 48.5197 66.8378 49.5756C65.2603 50.6356 64.0098 51.9854 63.0947 53.6251C62.1796 55.2648 61.72 57.2233 61.72 59.5089C61.72 62.4239 62.5606 64.9083 64.2417 66.9662C65.9228 69.0241 68.4734 70.7631 71.8977 72.1916C73.2434 72.7423 74.498 73.2806 75.6574 73.8106C76.8167 74.3406 77.8229 74.8913 78.6676 75.4586C79.5123 76.03 80.1789 76.6511 80.6716 77.3219C81.1602 77.9926 81.4045 78.7587 81.4045 79.6116C81.4045 80.2451 81.2513 80.829 80.9449 81.3672C80.6385 81.9055 80.1748 82.3734 79.5537 82.7709C78.9326 83.1684 78.1583 83.479 77.2308 83.7026C76.3033 83.9261 75.2184 84.0379 73.9763 84.0379C71.8563 84.0379 69.757 83.6653 67.6784 82.9241C65.5998 82.1788 63.6744 81.065 61.9022 79.5785V79.5744ZM45.464 55.4843H58.0059V47.4598H23.0467V55.4843H35.5265V91.2095H45.464V55.4843Z" fill="#0D0D0E"/>
</svg>
