<svg width="100" height="100" viewBox="0 0 100 100" fill="none" xmlns="http://www.w3.org/2000/svg">
<path d="M90.2323 0H9.76771C4.37315 0 0 4.37315 0 9.76771V90.2323C0 95.6268 4.37315 100 9.76771 100H90.2323C95.6268 100 100 95.6268 100 90.2323V9.76771C100 4.37315 95.6268 0 90.2323 0Z" fill="black"/>
<path fill-rule="evenodd" clip-rule="evenodd" d="M61.9022 79.5744V89.3504C63.4922 90.1661 65.372 90.7747 67.5417 91.1846C69.7114 91.5946 72.0011 91.7975 74.4027 91.7975C76.8042 91.7975 78.9739 91.5739 81.0815 91.1267C83.1891 90.6795 85.0399 89.9383 86.6299 88.9114C88.2199 87.8846 89.4787 86.5389 90.4062 84.8785C91.3337 83.2181 91.7974 81.1644 91.7974 78.7214C91.7974 76.9492 91.5324 75.3965 91.0024 74.0632C90.4724 72.7299 89.7064 71.5416 88.7085 70.5023C87.7106 69.463 86.514 68.5313 85.1186 67.7074C83.7232 66.8834 82.1498 66.1049 80.3942 65.3721C79.1106 64.8421 77.9595 64.3286 76.9409 63.8276C75.9223 63.3266 75.0569 62.8173 74.3406 62.2997C73.6284 61.7821 73.0777 61.2314 72.6885 60.6517C72.3034 60.0721 72.1088 59.4137 72.1088 58.6808C72.1088 58.01 72.2827 57.4014 72.6305 56.8631C72.9783 56.3248 73.4669 55.8611 74.0963 55.4718C74.7298 55.0868 75.5041 54.7845 76.4192 54.5692C77.3384 54.3539 78.357 54.2504 79.4749 54.2504C80.2906 54.2504 81.1519 54.3125 82.0587 54.4325C82.9655 54.5568 83.8764 54.7431 84.7956 54.9998C85.7107 55.2565 86.6051 55.5754 87.4705 55.9604C88.3359 56.3455 89.135 56.7968 89.8679 57.3061V48.1719C88.3814 47.6005 86.7541 47.1782 84.9944 46.9049C83.2346 46.6316 81.2099 46.4908 78.9284 46.4908C76.6469 46.4908 74.4027 46.7393 72.3241 47.2403C70.2455 47.7413 68.4154 48.5197 66.8378 49.5756C65.2602 50.6356 64.0097 51.9854 63.0947 53.6251C62.1796 55.2648 61.72 57.2233 61.72 59.5089C61.72 62.4239 62.5605 64.9083 64.2416 66.9662C65.9227 69.0241 68.4733 70.7631 71.8976 72.1916C73.2433 72.7423 74.4979 73.2806 75.6573 73.8106C76.8167 74.3406 77.8228 74.8913 78.6675 75.4586C79.5122 76.03 80.1788 76.6511 80.6716 77.3219C81.1602 77.9926 81.4045 78.7587 81.4045 79.6116C81.4045 80.2451 81.2513 80.829 80.9449 81.3672C80.6385 81.9055 80.1747 82.3734 79.5536 82.7709C78.9325 83.1684 78.1582 83.479 77.2307 83.7026C76.3032 83.9261 75.2184 84.0379 73.9762 84.0379C71.8562 84.0379 69.7569 83.6653 67.6783 82.9241C65.5997 82.1788 63.6743 81.065 61.9022 79.5785V79.5744ZM45.4639 55.4843H58.0058V47.4598H23.0466V55.4843H35.5264V91.2095H45.4639V55.4843Z" fill="white"/>
</svg>
